<svg xmlns="http://www.w3.org/2000/svg" version="1.1" xmlns:xlink="http://www.w3.org/1999/xlink" xmlns:svgjs="http://svgjs.dev/svgjs" width="1000" height="1000" viewBox="0 0 1000 1000"><rect width="1000" height="1000" fill="#000000"></rect><g transform="matrix(0.7,0,0,0.7,150.11896067415722,358.5107924847966)"><svg viewBox="0 0 356 144" data-background-color="#ffffff" preserveAspectRatio="xMidYMid meet" height="404" width="1000" xmlns="http://www.w3.org/2000/svg" xmlns:xlink="http://www.w3.org/1999/xlink"><g id="tight-bounds" transform="matrix(1,0,0,1,-0.06049999999996203,0.045423911560448005)"><svg viewBox="0 0 356.12052 143.9091521768791" height="143.9091521768791" width="356.12052"><g><svg viewBox="0 0 356.12052 143.9091521768791" height="143.9091521768791" width="356.12052"><g><svg viewBox="0 0 356.12052 143.9091521768791" height="143.9091521768791" width="356.12052"><g><path d="M0 143.909v-143.909h356.121v143.909z" fill="#ffffff" stroke="transparent" stroke-width="0" rx="0%" data-fill-palette-color="tertiary"></path><path d="M3.283 140.626v-137.343h349.554v137.343z" fill="#000000" stroke="transparent" stroke-width="0" rx="0%" data-fill-palette-color="quaternary"></path><path d="M9.85 134.059v-124.209h336.421v124.209z" fill="#ffffff" stroke="transparent" stroke-width="0" data-fill-palette-color="tertiary"></path></g><g transform="matrix(1,0,0,1,19.69974,19.69974)" id="textblocktransform"><svg viewBox="0 0 316.72104 104.50967217687909" height="104.50967217687909" width="316.72104" id="textblock"><g><svg viewBox="0 0 316.72104 78.58936253731343" height="78.58936253731343" width="316.72104"><g transform="matrix(1,0,0,1,0,0)"><svg width="316.72104" viewBox="1 -29.700000762939453 133.99000549316406 33.25" height="78.58936253731343" data-palette-color="#ffffff"><path d="M10.35 3.55L10.35 3.55Q5.85 3.55 5.85-0.2L5.85-0.2Q5.85-2.8 9.9-12.2L9.9-12.2Q14.65-23.2 15.25-26.2L15.25-26.2Q10.1-26.2 6.18-24.68 2.25-23.15 2.25-20.35L2.25-20.35Q2.25-19.6 2.65-19 3.05-18.4 3.45-18.15L3.45-18.15Q4.25-17.65 5.25-17.15L5.25-17.15Q5.85-16.7 5.45-16.6L5.45-16.6Q5.3-16.6 5.1-16.65L5.1-16.65Q3.95-16.9 2.6-18.1 1.25-19.3 1.2-20.85L1.2-20.85Q1-21.35 1-21.75L1-21.75Q1-24.15 3.23-25.8 5.45-27.45 8.22-27.93 11-28.4 12.7-28.4 14.4-28.4 15.35-28.35L15.35-28.35Q15.3-28.7 15.05-29.1 14.8-29.5 15.35-29.65L15.35-29.65Q15.4-29.65 15.5-29.65L15.5-29.65Q16-29.65 16.45-28.9L16.45-28.9 16.7-28.2Q19.55-27.8 21.45-26.95L21.45-26.95Q22.2-26.65 22.65-25.93 23.1-25.2 22.35-25.25L22.35-25.25Q21.9-25.25 20.7-25.68 19.5-26.1 16.75-26.2L16.75-26.2Q16.5-21.15 14-15.45L14-15.45Q9.2-4.25 9.2-0.3L9.2-0.3Q9.2 2.25 11.25 2.25L11.25 2.25Q13.75 2.25 18.35-1.25L18.35-1.25Q23.8-5.3 28.85-13.35L28.85-13.35Q29.5-14.4 31.3-17.35L31.3-17.35Q34.75-23.05 37.1-25.95L37.1-25.95Q38.6-27.8 40.48-28.75 42.35-29.7 43.4-29.7 44.45-29.7 45-29.43 45.55-29.15 45.55-28.93 45.55-28.7 45.3-28.7L45.3-28.7 44.75-28.75Q43.1-28.75 40.1-25.1L40.1-25.1Q38.2-22.8 34.83-18.25 31.45-13.7 29.95-11.75L29.95-11.75Q23.55-3.7 18.9-0.08 14.25 3.55 10.35 3.55ZM35.2 0.55L35.2 0.55Q34.4 0.55 33.47 0.08 32.55-0.4 31.9-1.28 31.25-2.15 31.25-3.15 31.25-4.15 31.7-5.05L31.7-5.05Q32.7-7.15 34.92-9.13 37.15-11.1 39.55-12.5 41.95-13.9 43.35-14.25 44.75-14.6 46.07-14.6 47.4-14.6 48.35-13.93 49.3-13.25 49.3-12.5L49.3-12.5Q49.3-12.25 49.25-12.2 49.2-12.15 49-12.25L49-12.25Q48.4-13.2 46.52-13.2 44.65-13.2 42.27-11.98 39.9-10.75 37.8-8.9L37.8-8.9Q36.05-7.25 34.72-5.18 33.4-3.1 33.4-2.15L33.4-2.15Q33.4-0.3 34.45-0.3 35.5-0.3 37.65-2L37.65-2Q41.2-5 42.5-6.4L42.5-6.4Q47.1-11.35 47.45-11.35L47.45-11.35Q48.05-11.35 48.9-11 49.75-10.65 49.45-10.15L49.45-10.15Q46.9-6.55 46.45-2.9L46.45-2.9Q46.4-2.45 46.4-1.75 46.4-1.05 46.8-0.6L46.8-0.6Q47.55 0.2 48.85-0.5 50.15-1.2 52.47-3.3 54.8-5.4 56.2-7.4L56.2-7.4Q56.4-7.65 56.65-7.53 56.9-7.4 56.9-7.3L56.9-7.3Q56.9-6.55 54.52-4.03 52.15-1.5 50.9-0.6L50.9-0.6Q48.55 1.15 46.55 1.15L46.55 1.15Q44.65 1.15 44-0.75L44-0.75Q43.85-1.35 43.85-2.1L43.85-2.1Q43.85-4.35 44.8-6.85L44.8-6.85Q44.6-6.75 42.95-4.85 41.3-2.95 39.12-1.2 36.95 0.55 35.2 0.55ZM62.09-13L62.09-13Q62.09-12.65 61.55-11.48 61-10.3 58.4-3.4L58.4-3.4Q60.2-5.6 62.95-8.5L62.95-8.5Q68.5-14.3 70.59-14.3L70.59-14.3Q71.05-14.3 71.47-14.05 71.9-13.8 71.9-12.93 71.9-12.05 71.34-10.98 70.8-9.9 70.09-8.35 69.4-6.8 69.15-6.4L69.15-6.4Q73.34-10.2 75.5-11.03 77.65-11.85 78.34-11.85 79.05-11.85 79.05-11.35L79.05-11.35Q79.05-11.05 78.3-9.9 77.55-8.75 76.65-6.5 75.75-4.25 75.65-3.35 75.55-2.45 75.55-1.75 75.55-1.05 75.95-0.6L75.95-0.6Q76.7 0.2 78-0.5 79.3-1.2 81.62-3.3 83.95-5.4 85.34-7.4L85.34-7.4Q85.55-7.65 85.82-7.53 86.09-7.4 86.09-7.28 86.09-7.15 86-7L86-7Q85.25-5.65 83.3-3.55L83.3-3.55Q80.09-0.1 77.95 0.7L77.95 0.7Q75.59 1.5 74.55 0.9 73.5 0.3 73.25-0.45 73-1.2 73-1.95L73-1.95Q73-4.3 73.92-6.65 74.84-9 75.4-9.85L75.4-9.85Q73.5-9.05 72.15-7.85L72.15-7.85Q70.09-6.05 68.84-4.7L68.84-4.7 67.84-3.6Q67.4-2.5 66.27-2.35 65.15-2.2 65.2-3.1L65.2-3.1Q65.3-4.05 67.05-7.35 68.8-10.65 68.8-11.03 68.8-11.4 68.4-11.4L68.4-11.4Q67.5-11.4 65.15-9.35L65.15-9.35Q63.59-7.9 60.57-3.88 57.55 0.15 57.15 0.4L57.15 0.4Q55.34 1.3 54.9 1.3 54.45 1.3 54.45 1.15 54.45 1 54.59 0.7 54.75 0.4 57.65-8L57.65-8Q56.55-6.3 55.65-5.4L55.65-5.4Q55.25-4.95 55.25-5.58 55.25-6.2 55.59-6.65L55.59-6.65Q57.84-9.6 58.9-11.65L58.9-11.65Q59.2-13.4 60.09-13.7L60.09-13.7Q60.65-13.9 61.37-13.7 62.09-13.5 62.09-13ZM85.24 0.5L85.24 0.5Q84.59 1.25 84.97 1.7 85.34 2.15 85.82 2.15 86.29 2.15 86.79 2L86.79 2Q88.94 1.35 90.97-0.58 92.99-2.5 92.99-4.5L92.99-4.5Q92.99-5.6 90.54-6.9L90.54-6.9Q89.39-7.5 89.24-7.6L89.24-7.6Q87.89-8.5 87.54-9.4L87.54-9.4Q86.84-8.2 85.29-5.95L85.29-5.95Q84.94-5.55 84.64-5.78 84.34-6 84.59-6.4L84.59-6.4Q86.64-9.2 87.29-11.1L87.29-11.1Q87.64-13.85 91.29-16.05 94.94-18.25 97.94-18.25L97.94-18.25Q99.84-18.25 100.62-17.57 101.39-16.9 101.39-16.25 101.39-15.6 101.02-14.75 100.64-13.9 99.49-13.15L99.49-13.15Q99.19-12.95 98.99-13.25L98.99-13.25Q98.89-13.55 99.42-14.08 99.94-14.6 100.09-15.5 100.24-16.4 99.29-16.6L99.29-16.6Q99.14-16.6 98.99-16.6L98.99-16.6Q97.04-16.6 94.12-15.15 91.19-13.7 89.54-11.4L89.54-11.4Q88.89-10.55 88.89-9.68 88.89-8.8 90.09-8.1L90.09-8.1Q90.59-7.8 91.79-7.15 92.99-6.5 93.49-6.2 93.99-5.9 94.69-5.25 95.39-4.6 95.44-4.05L95.44-4.05Q95.69-2.55 94.04-0.75L94.04-0.75Q91.69 1.85 87.04 2.9L87.04 2.9Q85.99 3.15 84.92 3.15 83.84 3.15 83.44 2.35L83.44 2.35Q83.29 2.15 83.29 1.73 83.29 1.3 84.09 0.35L84.09 0.35Q84.84-0.4 86.49-1.1L86.49-1.1Q86.64-1.15 86.74-1.05 86.84-0.95 86.79-0.8 86.74-0.65 86.27-0.45 85.79-0.25 85.24 0.5ZM116.69-29.25L116.69-29.25Q117.59-29.6 118.24-29.6L118.24-29.6Q120.44-29.6 121.14-28.4L121.14-28.4Q121.54-27.8 121.54-27.35L121.54-27.35Q121.54-23.95 115.84-18.8L115.84-18.8Q110.79-14.35 106.54-11.15L106.54-11.15Q105.14-8 103.64-3.4L103.64-3.4Q105.44-5.6 108.19-8.5L108.19-8.5Q113.74-14.25 115.94-14.25L115.94-14.25Q117.04-14.25 117.09-13.15L117.09-13.15Q117.19-12 116.62-10.95 116.04-9.9 115.54-9L115.54-9Q113.19-5.1 113.19-2.05L113.19-2.05Q113.19-1.05 113.59-0.6L113.59-0.6Q114.29 0.2 115.59-0.5 116.89-1.2 119.22-3.3 121.54-5.4 122.99-7.4L122.99-7.4Q123.24-7.65 123.47-7.53 123.69-7.4 123.69-7.28 123.69-7.15 123.59-7L123.59-7Q122.84-5.65 120.89-3.58 118.94-1.5 117.74-0.6L117.74-0.6Q115.44 1.15 113.34 1.15L113.34 1.15Q111.44 1.15 110.79-0.75L110.79-0.75Q110.64-1.2 110.64-1.83 110.64-2.45 110.74-3.15L110.74-3.15Q110.99-5.25 113.39-9.7L113.39-9.7Q113.89-10.6 113.89-10.98 113.89-11.35 113.49-11.35L113.49-11.35Q112.69-11.35 110.39-9.35L110.39-9.35Q108.84-7.9 105.82-3.88 102.79 0.15 102.39 0.4L102.39 0.4Q100.59 1.3 100.17 1.3 99.74 1.3 99.69 1.18 99.64 1.05 99.74 0.85 99.84 0.65 100.54-1.35L100.54-1.35Q102.89-8 103.74-10.15L103.74-10.15Q102.09-8.05 99.64-5.4L99.64-5.4Q99.24-5 99.24-5.58 99.24-6.15 99.69-6.75 100.14-7.35 101.57-9.08 102.99-10.8 103.59-11.65L103.59-11.65Q103.14-11.9 103.12-12.35 103.09-12.8 103.42-12.98 103.74-13.15 104.49-12.85L104.49-12.85Q104.99-13.55 105.39-14.4L105.39-14.4Q111.34-27.2 116.69-29.25ZM119.49-25.5L119.49-25.5Q120.14-26.7 120.14-27.53 120.14-28.35 119.42-28.35 118.69-28.35 117.49-27.45L117.49-27.45Q111.99-23.25 107.54-13.4L107.54-13.4Q110.79-15.5 114.34-19 117.89-22.5 119.49-25.5ZM127.14-13.85L127.14-13.85Q128.39-13.85 128.64-13.05L128.64-13.05Q128.74-12.6 128.51-12.18 128.29-11.75 128.19-11.5 128.09-11.25 128.04-11.1L128.04-11.1Q127.79-10.6 127.54-10.15L127.54-10.15Q124.69-4.45 124.54-2.9L124.54-2.9Q124.49-2.45 124.49-1.75 124.49-1.05 124.89-0.6L124.89-0.6Q125.59 0.2 126.89-0.5 128.19-1.2 130.51-3.3 132.84-5.4 134.29-7.4L134.29-7.4Q134.49-7.65 134.74-7.53 134.99-7.4 134.99-7.28 134.99-7.15 134.89-7L134.89-7Q134.14-5.65 132.19-3.55L132.19-3.55Q128.99-0.1 126.84 0.7L126.84 0.7Q125.59 1.15 124.74 1.15L124.74 1.15Q122.74 1.15 122.09-0.75L122.09-0.75Q121.99-1.1 121.99-1.6L121.99-1.6Q121.99-3.35 123.59-6.9L123.59-6.9Q123.34-6.35 121.64-4.4L121.64-4.4Q121.19-3.9 120.94-4.4L120.94-4.4Q120.89-4.5 120.89-4.67 120.89-4.85 121.09-5.1L121.09-5.1Q123.54-8.15 124.94-10.25L124.94-10.25Q124.84-10.5 125.04-10.9L125.04-10.9Q126.04-13.7 126.79-13.85L126.79-13.85Q126.94-13.85 127.14-13.85ZM131.09-20.5L131.09-20.5 130.69-18.9Q130.69-18.45 130.04-17.45 129.39-16.45 129.04-16.45L129.04-16.45Q126.89-16.45 126.89-17.5L126.89-17.5Q126.89-17.7 129.04-19.35L129.04-19.35 129.89-20Q130.69-20.7 130.89-20.7 131.09-20.7 131.09-20.5Z" opacity="1" transform="matrix(1,0,0,1,0,0)" fill="#000000" class="wordmark-text-0" data-fill-palette-color="quaternary" id="text-0"></path></svg></g></svg></g><g transform="matrix(1,0,0,1,0,85.15594253731344)"><svg viewBox="0 0 316.72104 19.353729639565653" height="19.353729639565653" width="316.72104"><g transform="matrix(1,0,0,1,0,0)"><svg width="316.72104" viewBox="1.2000000476837158 -39.040000915527344 802.5800170898438 49.05000305175781" height="19.353729639565653" data-palette-color="#ffffff"><path d="M1.2-24.51L1.2-24.51Q1.2-26.68 2.03-28.59 2.86-30.49 4.28-31.92 5.71-33.35 7.62-34.18 9.52-35.01 11.69-35.01L11.69-35.01 27.76-35.01 27.76-28 11.69-28Q10.96-28 10.33-27.73 9.69-27.47 9.22-26.99 8.74-26.51 8.47-25.88 8.2-25.24 8.2-24.51L8.2-24.51Q8.2-23.78 8.47-23.13 8.74-22.49 9.22-22.01 9.69-21.53 10.33-21.26 10.96-21 11.69-21L11.69-21 18.7-21Q20.87-21 22.79-20.18 24.71-19.36 26.14-17.93 27.56-16.5 28.38-14.59 29.2-12.67 29.2-10.5L29.2-10.5Q29.2-8.33 28.38-6.42 27.56-4.52 26.14-3.09 24.71-1.66 22.79-0.83 20.87 0 18.7 0L18.7 0 3.15 0 3.15-7.01 18.7-7.01Q19.43-7.01 20.07-7.28 20.7-7.54 21.18-8.02 21.66-8.5 21.92-9.13 22.19-9.77 22.19-10.5L22.19-10.5Q22.19-11.23 21.92-11.87 21.66-12.5 21.18-12.98 20.7-13.45 20.07-13.72 19.43-13.99 18.7-13.99L18.7-13.99 11.69-13.99Q9.52-13.99 7.62-14.82 5.71-15.65 4.28-17.08 2.86-18.51 2.03-20.42 1.2-22.34 1.2-24.51ZM50.8 0L45.75 0Q43.33 0 41.21-0.92 39.08-1.83 37.49-3.43 35.89-5.03 34.97-7.15 34.06-9.28 34.06-11.69L34.06-11.69 34.06-19.46 30.81-19.46 30.81-26.1 34.06-26.1 34.06-36.55 40.7-36.55 40.7-26.1 50.8-26.1 50.8-19.46 40.7-19.46 40.7-11.69Q40.7-10.64 41.09-9.73 41.48-8.81 42.16-8.13 42.84-7.45 43.77-7.04 44.7-6.64 45.75-6.64L45.75-6.64 50.8-6.64 50.8 0ZM64.25 10.01L60.83 9.96 60.83 3.25 64.55 3.3Q65.52 3.3 66.43 2.98 67.33 2.66 68.1 2.1 68.87 1.54 69.45 0.77 70.04 0 70.41-0.9L70.41-0.9Q69.31-0.44 68.17 0.02 67.04 0.49 65.89 0.49L65.89 0.49Q63.47 0.49 61.35-0.37 59.22-1.22 57.62-2.8 56.03-4.37 55.11-6.63 54.19-8.89 54.19-11.69L54.19-11.69 54.19-26.15 60.83-26.15 60.83-11.69Q60.83-10.3 61.24-9.27 61.64-8.23 62.32-7.53 63.01-6.84 63.92-6.49 64.84-6.15 65.89-6.15L65.89-6.15Q66.91-6.15 67.83-6.63 68.75-7.1 69.43-7.89 70.11-8.67 70.5-9.66 70.89-10.64 70.89-11.69L70.89-11.69 70.89-26.15 77.61-26.15 77.61-3.3Q77.58-0.54 76.53 1.88 75.48 4.3 73.66 6.1 71.85 7.91 69.43 8.96 67.01 10.01 64.25 10.01L64.25 10.01ZM89.4-36.55L89.4 0 82.68 0 82.68-36.55 89.4-36.55ZM117.37-21.46L104.87-6.4Q105.26-6.27 105.65-6.24 106.04-6.2 106.44-6.2L106.44-6.2Q107.41-6.2 108.32-6.47 109.22-6.74 110.01-7.24 110.81-7.74 111.43-8.46 112.05-9.18 112.44-10.06L112.44-10.06 117.32-5.15Q116.4-3.83 115.19-2.78 113.98-1.73 112.58-1 111.17-0.27 109.62 0.11 108.07 0.49 106.44 0.49L106.44 0.49Q103.68 0.49 101.25-0.54 98.82-1.56 97-3.39 95.18-5.22 94.13-7.75 93.08-10.28 93.08-13.31L93.08-13.31Q93.08-16.41 94.13-18.97 95.18-21.53 97-23.34 98.82-25.15 101.25-26.15 103.68-27.15 106.44-27.15L106.44-27.15Q108.07-27.15 109.63-26.76 111.2-26.37 112.6-25.63 114-24.9 115.22-23.84 116.45-22.78 117.37-21.46L117.37-21.46ZM100.53-9.84L108.29-20.14Q107.83-20.31 107.38-20.36 106.92-20.41 106.44-20.41L106.44-20.41Q105.07-20.41 103.86-19.91 102.65-19.41 101.76-18.48 100.87-17.55 100.36-16.25 99.84-14.94 99.84-13.31L99.84-13.31Q99.84-12.94 99.88-12.48 99.92-12.01 100-11.54 100.09-11.06 100.21-10.62 100.33-10.18 100.53-9.84L100.53-9.84ZM145.79-36.55L145.79 0 144.18 0 141.59-3.59Q140.64-2.73 139.57-1.99 138.51-1.25 137.34-0.7 136.17-0.15 134.94 0.17 133.7 0.49 132.43 0.49L132.43 0.49Q129.68 0.49 127.25-0.55 124.82-1.59 123-3.43 121.18-5.27 120.13-7.8 119.08-10.33 119.08-13.31L119.08-13.31Q119.08-16.26 120.13-18.8 121.18-21.34 123-23.19 124.82-25.05 127.25-26.1 129.68-27.15 132.43-27.15L132.43-27.15Q133.31-27.15 134.25-27 135.19-26.86 136.08-26.53 136.97-26.2 137.76-25.66 138.54-25.12 139.07-24.34L139.07-24.34 139.07-36.55 145.79-36.55ZM139.07-13.31L139.07-13.31Q139.07-14.67 138.55-15.95 138.02-17.24 137.12-18.23 136.22-19.21 135.01-19.81 133.8-20.41 132.43-20.41L132.43-20.41Q131.07-20.41 129.86-19.92 128.65-19.43 127.76-18.52 126.87-17.6 126.35-16.28 125.84-14.97 125.84-13.31L125.84-13.31Q125.84-11.87 126.35-10.57 126.87-9.28 127.76-8.3 128.65-7.32 129.86-6.76 131.07-6.2 132.43-6.2L132.43-6.2Q133.8-6.2 135.01-6.8 136.22-7.4 137.12-8.39 138.02-9.38 138.55-10.66 139.07-11.94 139.07-13.31ZM189.8-9.69L193.51-3.59Q191.07-1.49 188.04-0.37 185.02 0.76 181.77 0.76L181.77 0.76Q179.28 0.76 176.97 0.11 174.67-0.54 172.65-1.72 170.64-2.91 168.98-4.57 167.32-6.23 166.13-8.24 164.95-10.25 164.3-12.56 163.65-14.87 163.65-17.36L163.65-17.36Q163.65-19.85 164.3-22.17 164.95-24.49 166.13-26.5 167.32-28.52 168.98-30.18 170.64-31.84 172.65-33.02 174.67-34.2 176.97-34.85 179.28-35.5 181.77-35.5L181.77-35.5Q185.02-35.5 188.04-34.39 191.07-33.28 193.51-31.15L193.51-31.15 189.8-25.05Q188.26-26.71 186.16-27.6 184.06-28.49 181.77-28.49L181.77-28.49Q179.45-28.49 177.42-27.61 175.4-26.73 173.88-25.23 172.37-23.73 171.49-21.69 170.61-19.65 170.61-17.36L170.61-17.36Q170.61-15.06 171.49-13.05 172.37-11.04 173.88-9.52 175.4-8.01 177.42-7.13 179.45-6.25 181.77-6.25L181.77-6.25Q184.06-6.25 186.16-7.14 188.26-8.03 189.8-9.69L189.8-9.69ZM221.22-13.31L221.22-13.31Q221.22-10.38 220.17-7.85 219.12-5.32 217.31-3.48 215.51-1.64 213.08-0.57 210.65 0.49 207.87 0.49L207.87 0.49Q205.11 0.49 202.68-0.57 200.25-1.64 198.43-3.48 196.61-5.32 195.56-7.85 194.51-10.38 194.51-13.31L194.51-13.31Q194.51-16.28 195.56-18.82 196.61-21.36 198.43-23.21 200.25-25.05 202.68-26.1 205.11-27.15 207.87-27.15L207.87-27.15Q210.65-27.15 213.08-26.16 215.51-25.17 217.31-23.35 219.12-21.53 220.17-18.98 221.22-16.43 221.22-13.31ZM214.51-13.31L214.51-13.31Q214.51-14.92 213.98-16.22 213.46-17.53 212.55-18.47 211.65-19.41 210.44-19.91 209.23-20.41 207.87-20.41L207.87-20.41Q206.5-20.41 205.29-19.91 204.08-19.41 203.19-18.47 202.3-17.53 201.79-16.22 201.27-14.92 201.27-13.31L201.27-13.31Q201.27-11.79 201.79-10.5 202.3-9.2 203.19-8.25 204.08-7.3 205.29-6.75 206.5-6.2 207.87-6.2L207.87-6.2Q209.23-6.2 210.44-6.71 211.65-7.23 212.55-8.15 213.46-9.08 213.98-10.4 214.51-11.72 214.51-13.31ZM231.57-14.94L231.57 0 224.9 0 224.9-26.15 226.52-26.15 228.71-23.61Q230.32-25.07 232.36-25.87 234.4-26.66 236.62-26.66L236.62-26.66Q239.02-26.66 241.14-25.74 243.26-24.83 244.85-23.23 246.44-21.63 247.35-19.49 248.27-17.36 248.27-14.94L248.27-14.94 248.27 0 241.6 0 241.6-14.94Q241.6-15.97 241.21-16.88 240.82-17.8 240.14-18.48 239.46-19.17 238.55-19.56 237.65-19.95 236.62-19.95L236.62-19.95Q235.57-19.95 234.65-19.56 233.72-19.17 233.03-18.48 232.35-17.8 231.96-16.88 231.57-15.97 231.57-14.94L231.57-14.94ZM261.08-19.51L261.08 0 254.42 0 254.42-19.51 251.17-19.51 251.17-26.15 254.42-26.15 254.42-27.39Q254.42-29.81 255.33-31.93 256.25-34.06 257.85-35.63 259.45-37.21 261.57-38.12 263.7-39.04 266.11-39.04L266.11-39.04 271.12-39.04 271.12-32.4 266.11-32.4Q265.04-32.4 264.12-32.02 263.21-31.64 262.54-30.97 261.86-30.3 261.47-29.38 261.08-28.47 261.08-27.39L261.08-27.39 261.08-26.15 269.26-26.15 269.26-19.51 261.08-19.51ZM281.22-33.25L281.22-33.25Q281.22-32.32 280.87-31.52 280.51-30.71 279.9-30.11 279.29-29.52 278.48-29.16 277.66-28.81 276.73-28.81L276.73-28.81Q275.8-28.81 274.98-29.16 274.17-29.52 273.57-30.11 272.97-30.71 272.62-31.52 272.26-32.32 272.26-33.25L272.26-33.25Q272.26-34.16 272.62-34.97 272.97-35.79 273.57-36.39 274.17-36.99 274.98-37.34 275.8-37.7 276.73-37.7L276.73-37.7Q277.66-37.7 278.48-37.34 279.29-36.99 279.9-36.39 280.51-35.79 280.87-34.97 281.22-34.16 281.22-33.25ZM280.08-26.15L280.08 0 273.36 0 273.36-26.15 280.08-26.15ZM310.42-36.55L310.42 0 308.81 0 306.22-3.59Q305.27-2.73 304.21-1.99 303.14-1.25 301.97-0.7 300.8-0.15 299.57 0.17 298.33 0.49 297.06 0.49L297.06 0.49Q294.31 0.49 291.88-0.55 289.45-1.59 287.63-3.43 285.81-5.27 284.76-7.8 283.71-10.33 283.71-13.31L283.71-13.31Q283.71-16.26 284.76-18.8 285.81-21.34 287.63-23.19 289.45-25.05 291.88-26.1 294.31-27.15 297.06-27.15L297.06-27.15Q297.94-27.15 298.88-27 299.82-26.86 300.71-26.53 301.61-26.2 302.39-25.66 303.17-25.12 303.71-24.34L303.71-24.34 303.71-36.55 310.42-36.55ZM303.71-13.31L303.71-13.31Q303.71-14.67 303.18-15.95 302.66-17.24 301.75-18.23 300.85-19.21 299.64-19.81 298.43-20.41 297.06-20.41L297.06-20.41Q295.7-20.41 294.49-19.92 293.28-19.43 292.39-18.52 291.5-17.6 290.99-16.28 290.47-14.97 290.47-13.31L290.47-13.31Q290.47-11.87 290.99-10.57 291.5-9.28 292.39-8.3 293.28-7.32 294.49-6.76 295.7-6.2 297.06-6.2L297.06-6.2Q298.43-6.2 299.64-6.8 300.85-7.4 301.75-8.39 302.66-9.38 303.18-10.66 303.71-11.94 303.71-13.31ZM338.4-21.46L325.9-6.4Q326.29-6.27 326.68-6.24 327.07-6.2 327.46-6.2L327.46-6.2Q328.43-6.2 329.34-6.47 330.24-6.74 331.03-7.24 331.83-7.74 332.45-8.46 333.07-9.18 333.46-10.06L333.46-10.06 338.35-5.15Q337.42-3.83 336.21-2.78 335-1.73 333.6-1 332.19-0.27 330.64 0.11 329.09 0.49 327.46 0.49L327.46 0.49Q324.7 0.49 322.27-0.54 319.84-1.56 318.02-3.39 316.2-5.22 315.15-7.75 314.1-10.28 314.1-13.31L314.1-13.31Q314.1-16.41 315.15-18.97 316.2-21.53 318.02-23.34 319.84-25.15 322.27-26.15 324.7-27.15 327.46-27.15L327.46-27.15Q329.09-27.15 330.66-26.76 332.22-26.37 333.62-25.63 335.03-24.9 336.25-23.84 337.47-22.78 338.4-21.46L338.4-21.46ZM321.55-9.84L329.31-20.14Q328.85-20.31 328.4-20.36 327.95-20.41 327.46-20.41L327.46-20.41Q326.09-20.41 324.88-19.91 323.67-19.41 322.78-18.48 321.89-17.55 321.38-16.25 320.87-14.94 320.87-13.31L320.87-13.31Q320.87-12.94 320.9-12.48 320.94-12.01 321.02-11.54 321.11-11.06 321.23-10.62 321.35-10.18 321.55-9.84L321.55-9.84ZM348.4-14.94L348.4 0 341.74 0 341.74-26.15 343.35-26.15 345.55-23.61Q347.16-25.07 349.2-25.87 351.23-26.66 353.46-26.66L353.46-26.66Q355.85-26.66 357.97-25.74 360.1-24.83 361.68-23.23 363.27-21.63 364.19-19.49 365.1-17.36 365.1-14.94L365.1-14.94 365.1 0 358.44 0 358.44-14.94Q358.44-15.97 358.05-16.88 357.66-17.8 356.97-18.48 356.29-19.17 355.38-19.56 354.48-19.95 353.46-19.95L353.46-19.95Q352.41-19.95 351.48-19.56 350.55-19.17 349.87-18.48 349.18-17.8 348.79-16.88 348.4-15.97 348.4-14.94L348.4-14.94ZM392.69-20.95L392.69-20.95 387.8-16.04Q387.44-17.07 386.8-17.88 386.17-18.7 385.38-19.26 384.58-19.82 383.65-20.12 382.73-20.41 381.75-20.41L381.75-20.41Q380.38-20.41 379.17-19.85 377.97-19.29 377.07-18.27 376.18-17.26 375.67-15.87 375.16-14.48 375.16-12.79L375.16-12.79Q375.16-11.43 375.67-10.23 376.18-9.03 377.07-8.13 377.97-7.23 379.17-6.71 380.38-6.2 381.75-6.2L381.75-6.2Q382.73-6.2 383.63-6.47 384.53-6.74 385.33-7.24 386.12-7.74 386.74-8.46 387.36-9.18 387.76-10.06L387.76-10.06 392.64-5.15Q391.71-3.83 390.5-2.78 389.29-1.73 387.89-1 386.49-0.27 384.94 0.11 383.39 0.49 381.75 0.49L381.75 0.49Q378.99 0.49 376.56-0.55 374.13-1.59 372.31-3.39 370.49-5.2 369.44-7.62 368.4-10.03 368.4-12.79L368.4-12.79Q368.4-15.8 369.44-18.41 370.49-21.02 372.31-22.96 374.13-24.9 376.56-26.03 378.99-27.15 381.75-27.15L381.75-27.15Q383.39-27.15 384.96-26.73 386.53-26.32 387.96-25.52 389.39-24.73 390.6-23.58 391.81-22.44 392.69-20.95ZM418.44-21.46L405.94-6.4Q406.33-6.27 406.72-6.24 407.11-6.2 407.5-6.2L407.5-6.2Q408.48-6.2 409.38-6.47 410.29-6.74 411.08-7.24 411.87-7.74 412.5-8.46 413.12-9.18 413.51-10.06L413.51-10.06 418.39-5.15Q417.46-3.83 416.26-2.78 415.05-1.73 413.64-1 412.24-0.27 410.69 0.11 409.14 0.49 407.5 0.49L407.5 0.49Q404.75 0.49 402.32-0.54 399.89-1.56 398.07-3.39 396.25-5.22 395.2-7.75 394.15-10.28 394.15-13.31L394.15-13.31Q394.15-16.41 395.2-18.97 396.25-21.53 398.07-23.34 399.89-25.15 402.32-26.15 404.75-27.15 407.5-27.15L407.5-27.15Q409.14-27.15 410.7-26.76 412.26-26.37 413.67-25.63 415.07-24.9 416.29-23.84 417.51-22.78 418.44-21.46L418.44-21.46ZM401.6-9.84L409.36-20.14Q408.9-20.31 408.44-20.36 407.99-20.41 407.5-20.41L407.5-20.41Q406.14-20.41 404.93-19.91 403.72-19.41 402.83-18.48 401.94-17.55 401.42-16.25 400.91-14.94 400.91-13.31L400.91-13.31Q400.91-12.94 400.95-12.48 400.99-12.01 401.07-11.54 401.16-11.06 401.28-10.62 401.4-10.18 401.6-9.84L401.6-9.84ZM443.49-13.99L443.49 0 436.48 0 436.48-35.01 460.99-35.01 460.99-28 443.49-28 443.49-21 453.98-21 453.98-13.99 443.49-13.99ZM486.09-13.31L486.09-13.31Q486.09-10.38 485.04-7.85 483.99-5.32 482.18-3.48 480.37-1.64 477.94-0.57 475.51 0.49 472.73 0.49L472.73 0.49Q469.97 0.49 467.54-0.57 465.11-1.64 463.29-3.48 461.48-5.32 460.43-7.85 459.38-10.38 459.38-13.31L459.38-13.31Q459.38-16.28 460.43-18.82 461.48-21.36 463.29-23.21 465.11-25.05 467.54-26.1 469.97-27.15 472.73-27.15L472.73-27.15Q475.51-27.15 477.94-26.16 480.37-25.17 482.18-23.35 483.99-21.53 485.04-18.98 486.09-16.43 486.09-13.31ZM479.37-13.31L479.37-13.31Q479.37-14.92 478.85-16.22 478.32-17.53 477.42-18.47 476.52-19.41 475.31-19.91 474.1-20.41 472.73-20.41L472.73-20.41Q471.36-20.41 470.16-19.91 468.95-19.41 468.06-18.47 467.16-17.53 466.65-16.22 466.14-14.92 466.14-13.31L466.14-13.31Q466.14-11.79 466.65-10.5 467.16-9.2 468.06-8.25 468.95-7.3 470.16-6.75 471.36-6.2 472.73-6.2L472.73-6.2Q474.1-6.2 475.31-6.71 476.52-7.23 477.42-8.15 478.32-9.08 478.85-10.4 479.37-11.72 479.37-13.31ZM496.43-14.4L496.43 0 489.77 0 489.77-26.15 491.38-26.15 493.58-23.05Q495.19-24.51 497.24-25.31 499.29-26.1 501.49-26.1L501.49-26.1 507.37-26.1 507.37-19.46 501.49-19.46Q500.44-19.46 499.51-19.07 498.58-18.68 497.9-17.99 497.22-17.31 496.83-16.38 496.43-15.45 496.43-14.4L496.43-14.4ZM559.91-25L559.91 0 552.92 0 552.92-25Q552.92-25.73 552.64-26.37 552.36-27 551.89-27.48 551.41-27.95 550.78-28.22 550.14-28.49 549.41-28.49L549.41-28.49Q548.68-28.49 548.04-28.22 547.41-27.95 546.93-27.48 546.45-27 546.19-26.37 545.92-25.73 545.92-25L545.92-25 545.92 0 538.91 0 538.91-25Q538.91-25.73 538.64-26.37 538.37-27 537.9-27.48 537.42-27.95 536.79-28.22 536.15-28.49 535.42-28.49L535.42-28.49Q534.69-28.49 534.05-28.22 533.42-27.95 532.94-27.48 532.46-27 532.2-26.37 531.93-25.73 531.93-25L531.93-25 531.93 0 524.92 0 524.92-25Q524.92-27.17 525.74-29.09 526.56-31.01 527.98-32.43 529.41-33.86 531.33-34.68 533.25-35.5 535.42-35.5L535.42-35.5Q537.37-35.5 539.18-34.8 540.99-34.11 542.43-32.79L542.43-32.79Q543.87-34.11 545.66-34.8 547.45-35.5 549.41-35.5L549.41-35.5Q551.58-35.5 553.5-34.68 555.41-33.86 556.84-32.43 558.27-31.01 559.09-29.09 559.91-27.17 559.91-25L559.91-25ZM590.42-13.31L590.42-13.31Q590.42-10.38 589.37-7.85 588.32-5.32 586.51-3.48 584.71-1.64 582.28-0.57 579.85 0.49 577.07 0.49L577.07 0.49Q574.31 0.49 571.88-0.57 569.45-1.64 567.63-3.48 565.81-5.32 564.76-7.85 563.71-10.38 563.71-13.31L563.71-13.31Q563.71-16.28 564.76-18.82 565.81-21.36 567.63-23.21 569.45-25.05 571.88-26.1 574.31-27.15 577.07-27.15L577.07-27.15Q579.85-27.15 582.28-26.16 584.71-25.17 586.51-23.35 588.32-21.53 589.37-18.98 590.42-16.43 590.42-13.31ZM583.71-13.31L583.71-13.31Q583.71-14.92 583.18-16.22 582.66-17.53 581.75-18.47 580.85-19.41 579.64-19.91 578.43-20.41 577.07-20.41L577.07-20.41Q575.7-20.41 574.49-19.91 573.28-19.41 572.39-18.47 571.5-17.53 570.99-16.22 570.47-14.92 570.47-13.31L570.47-13.31Q570.47-11.79 570.99-10.5 571.5-9.2 572.39-8.25 573.28-7.3 574.49-6.75 575.7-6.2 577.07-6.2L577.07-6.2Q578.43-6.2 579.64-6.71 580.85-7.23 581.75-8.15 582.66-9.08 583.18-10.4 583.71-11.72 583.71-13.31ZM619.37-36.55L619.37 0 617.76 0 615.17-3.59Q614.22-2.73 613.16-1.99 612.1-1.25 610.93-0.7 609.75-0.15 608.52 0.17 607.29 0.49 606.02 0.49L606.02 0.49Q603.26 0.49 600.83-0.55 598.4-1.59 596.58-3.43 594.76-5.27 593.71-7.8 592.66-10.33 592.66-13.31L592.66-13.31Q592.66-16.26 593.71-18.8 594.76-21.34 596.58-23.19 598.4-25.05 600.83-26.1 603.26-27.15 606.02-27.15L606.02-27.15Q606.9-27.15 607.84-27 608.78-26.86 609.67-26.53 610.56-26.2 611.34-25.66 612.12-25.12 612.66-24.34L612.66-24.34 612.66-36.55 619.37-36.55ZM612.66-13.31L612.66-13.31Q612.66-14.67 612.13-15.95 611.61-17.24 610.71-18.23 609.8-19.21 608.59-19.81 607.39-20.41 606.02-20.41L606.02-20.41Q604.65-20.41 603.44-19.92 602.23-19.43 601.34-18.52 600.45-17.6 599.94-16.28 599.43-14.97 599.43-13.31L599.43-13.31Q599.43-11.87 599.94-10.57 600.45-9.28 601.34-8.3 602.23-7.32 603.44-6.76 604.65-6.2 606.02-6.2L606.02-6.2Q607.39-6.2 608.59-6.8 609.8-7.4 610.71-8.39 611.61-9.38 612.13-10.66 612.66-11.94 612.66-13.31ZM647.35-21.46L634.85-6.4Q635.24-6.27 635.63-6.24 636.02-6.2 636.41-6.2L636.41-6.2Q637.39-6.2 638.29-6.47 639.2-6.74 639.99-7.24 640.78-7.74 641.4-8.46 642.03-9.18 642.42-10.06L642.42-10.06 647.3-5.15Q646.37-3.83 645.16-2.78 643.96-1.73 642.55-1 641.15-0.27 639.6 0.11 638.05 0.49 636.41 0.49L636.41 0.49Q633.65 0.49 631.22-0.54 628.79-1.56 626.98-3.39 625.16-5.22 624.11-7.75 623.06-10.28 623.06-13.31L623.06-13.31Q623.06-16.41 624.11-18.97 625.16-21.53 626.98-23.34 628.79-25.15 631.22-26.15 633.65-27.15 636.41-27.15L636.41-27.15Q638.05-27.15 639.61-26.76 641.17-26.37 642.58-25.63 643.98-24.9 645.2-23.84 646.42-22.78 647.35-21.46L647.35-21.46ZM630.5-9.84L638.27-20.14Q637.8-20.31 637.35-20.36 636.9-20.41 636.41-20.41L636.41-20.41Q635.04-20.41 633.84-19.91 632.63-19.41 631.74-18.48 630.85-17.55 630.33-16.25 629.82-14.94 629.82-13.31L629.82-13.31Q629.82-12.94 629.86-12.48 629.89-12.01 629.98-11.54 630.06-11.06 630.19-10.62 630.31-10.18 630.5-9.84L630.5-9.84ZM657.36-14.4L657.36 0 650.69 0 650.69-26.15 652.3-26.15 654.5-23.05Q656.11-24.51 658.16-25.31 660.21-26.1 662.41-26.1L662.41-26.1 668.29-26.1 668.29-19.46 662.41-19.46Q661.36-19.46 660.43-19.07 659.51-18.68 658.82-17.99 658.14-17.31 657.75-16.38 657.36-15.45 657.36-14.4L657.36-14.4ZM678.06-14.94L678.06 0 671.39 0 671.39-26.15 673-26.15 675.2-23.61Q676.81-25.07 678.85-25.87 680.89-26.66 683.11-26.66L683.11-26.66Q685.5-26.66 687.63-25.74 689.75-24.83 691.34-23.23 692.93-21.63 693.84-19.49 694.76-17.36 694.76-14.94L694.76-14.94 694.76 0 688.09 0 688.09-14.94Q688.09-15.97 687.7-16.88 687.31-17.8 686.63-18.48 685.94-19.17 685.04-19.56 684.14-19.95 683.11-19.95L683.11-19.95Q682.06-19.95 681.13-19.56 680.21-19.17 679.52-18.48 678.84-17.8 678.45-16.88 678.06-15.97 678.06-14.94L678.06-14.94ZM748.93-25L748.93 0 741.94 0 741.94-25Q741.94-25.73 741.66-26.37 741.38-27 740.91-27.48 740.43-27.95 739.8-28.22 739.16-28.49 738.43-28.49L738.43-28.49Q737.7-28.49 737.06-28.22 736.43-27.95 735.95-27.48 735.47-27 735.21-26.37 734.94-25.73 734.94-25L734.94-25 734.94 0 727.93 0 727.93-25Q727.93-25.73 727.66-26.37 727.39-27 726.92-27.48 726.44-27.95 725.81-28.22 725.17-28.49 724.44-28.49L724.44-28.49Q723.71-28.49 723.07-28.22 722.44-27.95 721.96-27.48 721.49-27 721.22-26.37 720.95-25.73 720.95-25L720.95-25 720.95 0 713.94 0 713.94-25Q713.94-27.17 714.76-29.09 715.58-31.01 717.01-32.43 718.43-33.86 720.35-34.68 722.27-35.5 724.44-35.5L724.44-35.5Q726.39-35.5 728.2-34.8 730.01-34.11 731.45-32.79L731.45-32.79Q732.89-34.11 734.68-34.8 736.48-35.5 738.43-35.5L738.43-35.5Q740.6-35.5 742.52-34.68 744.43-33.86 745.86-32.43 747.29-31.01 748.11-29.09 748.93-27.17 748.93-25L748.93-25ZM777.07-21.46L764.57-6.4Q764.96-6.27 765.35-6.24 765.75-6.2 766.14-6.2L766.14-6.2Q767.11-6.2 768.02-6.47 768.92-6.74 769.71-7.24 770.51-7.74 771.13-8.46 771.75-9.18 772.14-10.06L772.14-10.06 777.02-5.15Q776.1-3.83 774.89-2.78 773.68-1.73 772.28-1 770.87-0.27 769.32 0.11 767.77 0.49 766.14 0.49L766.14 0.49Q763.38 0.49 760.95-0.54 758.52-1.56 756.7-3.39 754.88-5.22 753.83-7.75 752.78-10.28 752.78-13.31L752.78-13.31Q752.78-16.41 753.83-18.97 754.88-21.53 756.7-23.34 758.52-25.15 760.95-26.15 763.38-27.15 766.14-27.15L766.14-27.15Q767.77-27.15 769.33-26.76 770.9-26.37 772.3-25.63 773.7-24.9 774.92-23.84 776.15-22.78 777.07-21.46L777.07-21.46ZM760.23-9.84L767.99-20.14Q767.53-20.31 767.08-20.36 766.62-20.41 766.14-20.41L766.14-20.41Q764.77-20.41 763.56-19.91 762.35-19.41 761.46-18.48 760.57-17.55 760.06-16.25 759.54-14.94 759.54-13.31L759.54-13.31Q759.54-12.94 759.58-12.48 759.62-12.01 759.7-11.54 759.79-11.06 759.91-10.62 760.03-10.18 760.23-9.84L760.23-9.84ZM787.08-14.94L787.08 0 780.42 0 780.42-26.15 782.03-26.15 784.22-23.61Q785.84-25.07 787.87-25.87 789.91-26.66 792.13-26.66L792.13-26.66Q794.53-26.66 796.65-25.74 798.78-24.83 800.36-23.23 801.95-21.63 802.86-19.49 803.78-17.36 803.78-14.94L803.78-14.94 803.78 0 797.11 0 797.11-14.94Q797.11-15.97 796.72-16.88 796.33-17.8 795.65-18.48 794.97-19.17 794.06-19.56 793.16-19.95 792.13-19.95L792.13-19.95Q791.08-19.95 790.16-19.56 789.23-19.17 788.55-18.48 787.86-17.8 787.47-16.88 787.08-15.97 787.08-14.94L787.08-14.94Z" opacity="1" transform="matrix(1,0,0,1,0,0)" fill="#000000" class="slogan-text-1" data-fill-palette-color="quaternary" id="text-1"></path></svg></g></svg></g></svg></g></svg></g><g></g></svg></g><defs></defs></svg><rect width="356.12052" height="143.9091521768791" fill="none" stroke="none" visibility="hidden"></rect></g></svg></g></svg>